<svg width="46" height="30" viewBox="0 0 46 30" fill="none" xmlns="http://www.w3.org/2000/svg">
<path d="M5.25 3L5.25 21C5.25 21.41 4.91 21.75 4.5 21.75C4.09 21.75 3.75 21.41 3.75 21L3.75 3C3.75 2.59 4.09 2.25 4.5 2.25C4.91 2.25 5.25 2.59 5.25 3ZM10.25 11.53V21C10.25 21.41 9.91 21.75 9.5 21.75C9.09 21.75 8.75 21.41 8.75 21V11.53C8.75 11.3311 8.82902 11.1403 8.96967 10.9997C9.11032 10.859 9.30109 10.78 9.5 10.78C9.69891 10.78 9.88968 10.859 10.0303 10.9997C10.171 11.1403 10.25 11.3311 10.25 11.53ZM15.25 3L15.25 21C15.25 21.41 14.91 21.75 14.5 21.75C14.09 21.75 13.75 21.41 13.75 21L13.75 3C13.75 2.59 14.09 2.25 14.5 2.25C14.91 2.25 15.25 2.59 15.25 3ZM20.25 11.53V21C20.25 21.41 19.91 21.75 19.5 21.75C19.09 21.75 18.75 21.41 18.75 21V11.53C18.75 11.3311 18.829 11.1403 18.9697 10.9997C19.1103 10.859 19.3011 10.78 19.5 10.78C19.6989 10.78 19.8897 10.859 20.0303 10.9997C20.171 11.1403 20.25 11.3311 20.25 11.53Z" fill="black"/>
<g filter="url(#filter0_d_21_36)">
<path d="M39.75 21.0001V12.0001C39.75 11.5901 40.09 11.2501 40.5 11.2501C40.91 11.2501 41.25 11.5901 41.25 12.0001V21.0001C41.25 21.4101 40.91 21.7501 40.5 21.7501C40.09 21.7501 39.75 21.4101 39.75 21.0001ZM34.75 21.0001V12.0001C34.75 11.5901 35.09 11.2501 35.5 11.2501C35.91 11.2501 36.25 11.5901 36.25 12.0001V21.0001C36.25 21.4101 35.91 21.7501 35.5 21.7501C35.09 21.7501 34.75 21.4101 34.75 21.0001ZM29.75 21.0001L29.75 3.00012C29.75 2.59012 30.09 2.25012 30.5 2.25012C30.91 2.25012 31.25 2.59012 31.25 3.00012L31.25 21.0001C31.25 21.4101 30.91 21.7501 30.5 21.7501C30.09 21.7501 29.75 21.4101 29.75 21.0001ZM24.75 21.0001L24.75 3.00012C24.75 2.59012 25.09 2.25012 25.5 2.25012C25.91 2.25012 26.25 2.59012 26.25 3.00012L26.25 21.0001C26.25 21.4101 25.91 21.7501 25.5 21.7501C25.09 21.7501 24.75 21.4101 24.75 21.0001Z" fill="black"/>
</g>
<defs>
<filter id="filter0_d_21_36" x="17" y="0.00012207" width="32" height="32" filterUnits="userSpaceOnUse" color-interpolation-filters="sRGB">
<feFlood flood-opacity="0" result="BackgroundImageFix"/>
<feColorMatrix in="SourceAlpha" type="matrix" values="0 0 0 0 0 0 0 0 0 0 0 0 0 0 0 0 0 0 127 0" result="hardAlpha"/>
<feOffset dy="4"/>
<feGaussianBlur stdDeviation="2"/>
<feComposite in2="hardAlpha" operator="out"/>
<feColorMatrix type="matrix" values="0 0 0 0 0 0 0 0 0 0 0 0 0 0 0 0 0 0 0.25 0"/>
<feBlend mode="normal" in2="BackgroundImageFix" result="effect1_dropShadow_21_36"/>
<feBlend mode="normal" in="SourceGraphic" in2="effect1_dropShadow_21_36" result="shape"/>
</filter>
</defs>
</svg>
